<svg xmlns="http://www.w3.org/2000/svg" width="1800" height="1200" viewBox="0 0 1800 1200">
  <defs>
    <linearGradient id="sky" x1="0" y1="0" x2="1" y2="1">
      <stop offset="0" stop-color="#08121b"/>
      <stop offset="0.48" stop-color="#0d1018"/>
      <stop offset="1" stop-color="#151006"/>
    </linearGradient>
    <linearGradient id="line" x1="0" y1="0" x2="1" y2="0">
      <stop offset="0" stop-color="#45d6c1" stop-opacity="0"/>
      <stop offset="0.5" stop-color="#45d6c1" stop-opacity="0.55"/>
      <stop offset="1" stop-color="#f4b860" stop-opacity="0"/>
    </linearGradient>
  </defs>
  <rect width="1800" height="1200" fill="url(#sky)"/>
  <g opacity="0.35">
    <path d="M0 780 C320 710 530 820 820 746 C1120 670 1360 540 1800 612 L1800 1200 L0 1200 Z" fill="#101b23"/>
    <path d="M0 900 C320 840 620 940 900 860 C1180 780 1440 750 1800 805 L1800 1200 L0 1200 Z" fill="#121018"/>
  </g>
  <g opacity="0.44">
    <path d="M260 225 H1540" stroke="url(#line)" stroke-width="2"/>
    <path d="M170 385 H1640" stroke="url(#line)" stroke-width="2"/>
    <path d="M300 545 H1500" stroke="url(#line)" stroke-width="2"/>
    <path d="M450 160 L680 960" stroke="#45d6c1" stroke-opacity="0.18" stroke-width="2"/>
    <path d="M1360 120 L1110 960" stroke="#f4b860" stroke-opacity="0.15" stroke-width="2"/>
  </g>
  <g opacity="0.68">
    <rect x="610" y="420" width="580" height="330" rx="18" fill="#111722" stroke="#d9eaff" stroke-opacity="0.18"/>
    <rect x="650" y="465" width="500" height="32" rx="6" fill="#45d6c1" fill-opacity="0.28"/>
    <rect x="650" y="535" width="360" height="18" rx="4" fill="#ffffff" fill-opacity="0.26"/>
    <rect x="650" y="580" width="430" height="18" rx="4" fill="#ffffff" fill-opacity="0.18"/>
    <rect x="650" y="625" width="280" height="18" rx="4" fill="#f4b860" fill-opacity="0.26"/>
    <rect x="760" y="790" width="280" height="34" rx="8" fill="#45d6c1" fill-opacity="0.22"/>
  </g>
</svg>
